<svg id="图层_1" data-name="图层 1" xmlns="http://www.w3.org/2000/svg" viewBox="0 0 296.87 335.5"><defs><style>.cls-1{fill:#be733c;}.cls-2{fill:#736357;}.cls-3{fill:#ffea00;}.cls-4{fill:#d88344;}.cls-5{fill:#8c6239;}.cls-6{fill:#e6e6e6;}</style></defs><title>未标题-1</title><path class="cls-1" d="M54,159s-1-61,64-59l112,3s15-1,20,16,14,67,3,118c0,0-2,15-24,13S54,159,54,159Z" transform="translate(-1.96 -3.5)"/><path class="cls-2" d="M232.87,251.68c-1.26,0-2.59-.06-4-.19-22.07-2-169.36-87.55-175.61-91.19l-.74-.43V159c0-1.08-.23-26.8,17.77-44.54,11.39-11.23,27.47-16.6,47.78-16l111.94,3c1.33,0,16.38-.16,21.45,17.08,5.71,19.42,13.7,69.23,3,118.71C254.26,238.53,251.5,251.68,232.87,251.68ZM55.51,158.14c11.69,6.78,153,88.49,173.63,90.37,20.33,1.83,22.35-11.57,22.37-11.71l0-.12c10.55-48.9,2.67-98.08-3-117.26-4.61-15.66-18.32-14.93-18.46-14.92H230l-112-3c-19.45-.6-34.78,4.48-45.56,15.1C57.06,131.69,55.64,153.62,55.51,158.14Z" transform="translate(-1.96 -3.5)"/><path class="cls-3" d="M179.29,57s-2.52,8.87-9.65,7.74-9.06-10.14-9.06-10.14l-10.27-.78s-2.52,8.87-10.55,8.16-9.07-10.14-9.07-10.14l-9.36-1.2S117.9,60,110.77,58.82,103,49.17,103,49.17l-6.28.69L88.3,158.32,181,115.69l4.13-58Zm-58.4,41.73a9,9,0,1,1,4.41-11.94A9,9,0,0,1,120.89,98.75Zm38.83,3a9,9,0,1,1,4.41-11.94A9,9,0,0,1,159.72,101.8Z" transform="translate(-1.96 -3.5)"/><path class="cls-2" d="M86.6,160.75,95.35,48.51l9.07-1,.11,1.55c0,.3.64,7.35,6.48,8.28s8.89-7.12,8.92-7.2l.41-1.12,11.71,1.5.13,1.18c0,.33,1,8.21,7.71,8.8s8.89-6.76,9-7.07l.34-1.17,12.6,1,.23,1.1c0,.07,1.83,8,7.84,9,5.74.9,8-6.59,8-6.67l.35-1.22,8.49.93-4.29,60.36ZM98.15,51.22,90,155.89l89.54-41.19,4-55.71-3.17-.35c-1.4,3.58-4.95,8.55-10.91,7.6-6.53-1-9.18-7.56-10-10.2l-8.06-.62c-1.42,3.57-5.16,8.66-11.73,8.07s-9.44-6.44-10.23-10.28l-7.13-.92c-1.26,2.67-5,9.07-11.72,8-5.66-.9-8.08-5.95-8.79-9.48ZM156,104.12a10.5,10.5,0,1,1,9.52-14.88A10.5,10.5,0,0,1,156,104.12Zm0-18a7.4,7.4,0,0,0-3.12.69,7.5,7.5,0,1,0,6.27,13.63h0a7.5,7.5,0,0,0-3.15-14.32Zm-38.81,15a10.51,10.51,0,1,1,9.53-14.9,10.52,10.52,0,0,1-9.53,14.9Zm0-18a7.52,7.52,0,1,0,2.61.47A7.38,7.38,0,0,0,117.12,83.07Z" transform="translate(-1.96 -3.5)"/><path class="cls-3" d="M237.5,81.5s-6,7-12,3-4-13-4-13l-9-5s-6,7-13,3-4-13-4-13l-8-5s-7,7-13,3-3-12-3-12l-6-2-53,95h102l28-51ZM167,95a9,9,0,1,1,9-9A9,9,0,0,1,167,95Zm34,19a9,9,0,1,1,9-9A9,9,0,0,1,201,114Z" transform="translate(-1.96 -3.5)"/><path class="cls-2" d="M215.39,137H110L164.8,38.68l8.65,2.89L172.9,43c-.1.28-2.49,6.94,2.43,10.22s11-2.75,11.11-2.81l.84-.84,10,6.25L196.92,57c-.1.32-2.51,7.9,3.32,11.23s11.07-2.62,11.12-2.68l.8-.93,11.05,6.14-.25,1.1c0,.07-1.69,8,3.37,11.42,4.84,3.22,10-2.67,10-2.73l.83-1,7.32,4.4Zm-100.34-3h98.56l26.88-49-2.73-1.64c-2.77,2.66-8.07,5.69-13.09,2.35-5.5-3.67-5.19-10.71-4.82-13.45l-7.07-3.93c-2.78,2.65-8.3,5.7-14,2.43s-5.89-9.79-5-13.62l-6.09-3.81c-2.26,1.9-8.35,6.14-14,2.38-4.77-3.18-4.85-8.79-4-12.29l-3.45-1.14Zm86-18.5A10.5,10.5,0,1,1,211.5,105,10.51,10.51,0,0,1,201,115.5Zm0-18a7.5,7.5,0,1,0,7.5,7.5A7.5,7.5,0,0,0,201,97.5Zm-34-1A10.5,10.5,0,1,1,177.5,86,10.51,10.51,0,0,1,167,96.5Zm0-18a7.5,7.5,0,1,0,7.5,7.5A7.5,7.5,0,0,0,167,78.5Z" transform="translate(-1.96 -3.5)"/><path class="cls-1" d="M215.1,141.72s20.68,1.65,30.13-32.35" transform="translate(-1.96 -3.5)"/><path class="cls-2" d="M215.65,143.24c-.36,0-.59,0-.66,0l.23-3-.12,1.49.12-1.49c.79.05,19.6,1,28.56-31.26l2.89.8C237.84,141.55,219.44,143.24,215.65,143.24Z" transform="translate(-1.96 -3.5)"/><rect class="cls-4" x="52.04" y="127.5" width="183" height="138" rx="25.12" ry="25.12"/><path class="cls-2" d="M211.88,270.5H79.12A26.65,26.65,0,0,1,52.5,243.88V156.12A26.65,26.65,0,0,1,79.12,129.5H211.88a26.65,26.65,0,0,1,26.62,26.62v87.76A26.65,26.65,0,0,1,211.88,270.5ZM79.12,132.5A23.65,23.65,0,0,0,55.5,156.12v87.76A23.65,23.65,0,0,0,79.12,267.5H211.88a23.65,23.65,0,0,0,23.62-23.62V156.12a23.65,23.65,0,0,0-23.62-23.62Z" transform="translate(-1.96 -3.5)"/><path class="cls-1" d="M203,180s-28-8-35,20,31,30,31,30,36-2,57-20,13-38,13-38-5-11-16,3S233,191,203,180Z" transform="translate(-1.96 -3.5)"/><path class="cls-5" d="M199,232h-.1c-.86-.05-21-1.24-29.8-13.11-3.91-5.29-4.93-11.81-3-19.37,2.19-8.77,6.57-15.1,13-18.83,11-6.35,23.91-2.77,24.46-2.61l.14,0c29.66,10.88,37.57,8.59,47.74-4.36,4.45-5.66,8.71-8.29,12.64-7.81,4.58.55,6.66,5,6.75,5.22s8.32,21.63-13.52,40.35C236,229.75,200.61,231.91,199.11,232ZM194.25,181a26.29,26.29,0,0,0-13.18,3.22c-5.47,3.17-9.22,8.66-11.13,16.31-1.59,6.36-.79,11.75,2.37,16,7.37,10,25.15,11.38,26.69,11.49,2.2-.15,36-2.67,55.7-19.52,19.22-16.48,13-34.29,12.46-35.68-.17-.34-1.41-2.64-3.59-2.89-2.39-.26-5.58,2-9,6.33-12,15.28-22.74,16.45-52.18,5.67A33.87,33.87,0,0,0,194.25,181Z" transform="translate(-1.96 -3.5)"/><circle class="cls-4" cx="191.54" cy="202" r="9"/><path class="cls-5" d="M193.5,216.5a11,11,0,1,1,11-11A11,11,0,0,1,193.5,216.5Zm0-18a7,7,0,1,0,7,7A7,7,0,0,0,193.5,198.5Z" transform="translate(-1.96 -3.5)"/><path class="cls-3" d="M30,60S30,82,7,86c0,0,22,10,23,33,0,0,0-31,18-33C48,86,32,80,30,60Z" transform="translate(-1.96 -3.5)"/><path class="cls-2" d="M28.5,119.06C27.55,97.24,6.59,87.46,6.38,87.37L2,85.35l4.78-.83C28.19,80.79,28.5,60.85,28.5,60l3-.15c1.89,18.85,16.89,24.69,17,24.75l5.87,2.2-6.23.69C31.71,89.32,31.5,118.7,31.5,119ZM11.11,86.59c5.08,3.18,14.33,10.31,18.41,22,.32-1.81.74-3.75,1.29-5.71,2.56-9.12,7-15,13-17.34A31.94,31.94,0,0,1,30.09,67.9,27.07,27.07,0,0,1,11.11,86.59Z" transform="translate(-1.96 -3.5)"/><path class="cls-3" d="M111,176s0,22-23,26c0,0,22,10,23,33,0,0,0-31,18-33C129,202,113,196,111,176Z" transform="translate(-1.96 -3.5)"/><path class="cls-2" d="M110,235c-1-22.13-22.2-32-22.41-32.13l-3-1.34,3.19-.56c21.87-3.8,22.17-24.15,22.17-25l2-.1a30.6,30.6,0,0,0,9.37,19.81,26.94,26.94,0,0,0,8,5.35l3.89,1.47-4.13.46C112.21,204.87,112,234.7,112,235ZM90.86,202.41c4.94,2.93,16,10.76,19.82,24.3a59.75,59.75,0,0,1,1.61-7.73c2.66-9.48,7.36-15.42,13.67-17.37a31,31,0,0,1-5.9-4.38,32.1,32.1,0,0,1-9-15.16C109.4,188.73,104.58,198.94,90.86,202.41Z" transform="translate(-1.96 -3.5)"/><path class="cls-3" d="M283.08,88s0,11.56-12.08,13.66c0,0,11.56,5.26,12.08,17.34,0,0,0-16.29,9.46-17.34A16.2,16.2,0,0,1,283.08,88Z" transform="translate(-1.96 -3.5)"/><path class="cls-2" d="M281.59,119.07c-.48-11-11.1-16-11.21-16L266,101l4.78-.84A12.49,12.49,0,0,0,281.58,88l3-.15c.94,9.4,8.19,12.29,8.49,12.41l5.76,2.21-6.12.68c-8,.89-8.13,15.7-8.13,15.85Zm-6.79-16.9a23.79,23.79,0,0,1,7.81,8.9c.95-3.75,2.77-7.83,6.26-9.79a17.49,17.49,0,0,1-5.74-7.11A14.57,14.57,0,0,1,274.8,102.17Z" transform="translate(-1.96 -3.5)"/><circle class="cls-3" cx="87.04" cy="7.5" r="6"/><path class="cls-2" d="M89,18.5A7.5,7.5,0,1,1,96.5,11,7.5,7.5,0,0,1,89,18.5Zm0-12A4.5,4.5,0,1,0,93.5,11,4.51,4.51,0,0,0,89,6.5Z" transform="translate(-1.96 -3.5)"/><ellipse class="cls-6" cx="151.04" cy="322" rx="105" ry="13.5"/></svg>